<svg width="1009" height="517" viewBox="0 0 1009 517" fill="none" xmlns="http://www.w3.org/2000/svg">
<g filter="url(#filter0_d_1270_206)">
<path d="M446.487 375.661C443.247 375.661 441.303 375.013 440.007 374.041C438.711 372.745 438.062 370.801 438.062 367.56V93.1009C438.062 89.8606 438.711 87.9163 440.007 86.6202C441.303 85.6481 443.247 85 446.487 85H487.64C490.556 85 492.825 85.6481 494.121 86.6202C495.417 87.9163 496.065 89.8606 496.065 93.1009V367.56C496.065 370.801 495.417 372.745 494.121 374.041C492.825 375.013 490.556 375.661 487.64 375.661H446.487Z" fill="#FE6433"/>
<path d="M327.65 477.584C312.096 477.584 298.163 476.612 285.849 474.992C273.212 473.048 262.519 470.132 253.77 465.595C244.696 460.734 237.892 454.254 233.355 446.477C228.171 438.052 225.902 427.683 225.902 414.721C225.902 405 228.171 396.251 233.031 388.474C237.568 380.373 245.345 372.272 256.038 364.172C251.177 360.931 247.613 356.719 245.021 351.21C242.104 345.377 240.808 339.221 240.808 332.74C240.808 330.148 241.456 326.907 243.4 323.019C244.696 319.454 246.641 315.89 248.909 312.002C251.177 308.113 254.094 303.577 257.334 299.04C253.445 296.448 249.881 293.531 246.641 289.967C243.076 286.727 240.16 282.514 237.568 277.33C234.651 272.469 232.383 266.636 231.087 259.832C229.143 253.351 228.495 245.25 228.495 236.177C228.495 222.567 230.763 211.226 235.623 201.505C240.16 192.108 246.317 184.331 254.418 178.498C262.194 172.666 271.268 168.453 282.285 165.537C292.978 162.945 304.643 161.648 316.957 161.648C322.789 161.648 329.27 161.972 336.399 162.621C343.204 163.269 350.981 164.889 359.73 167.157L415.14 166.185C418.38 166.185 420.973 167.157 422.593 168.453C423.889 170.073 424.537 172.666 424.537 176.23V202.477C424.537 205.717 423.889 207.986 422.917 208.958C421.621 210.254 419.028 210.902 415.464 210.902H397.966C399.586 214.142 401.206 217.383 402.827 220.947C404.123 224.836 405.095 230.02 405.095 236.177C405.095 251.083 403.151 263.072 399.262 272.469C395.374 282.19 389.541 289.967 382.412 295.476C374.635 301.308 365.562 305.197 354.545 307.141C343.528 309.409 330.566 310.381 316.309 310.381C313.716 310.381 310.8 310.381 307.236 309.733C303.347 309.733 300.755 309.409 298.811 308.761C297.839 311.029 297.19 312.974 296.542 314.918C295.894 316.862 295.57 318.482 295.246 320.102C294.598 322.047 294.598 323.667 294.598 324.963C294.598 327.555 294.922 329.824 295.894 331.768C296.542 333.388 298.487 334.684 301.727 335.98C304.319 336.952 308.532 337.6 314.04 338.249C319.225 338.573 326.354 338.897 335.427 338.897C353.249 338.897 368.155 339.869 380.144 342.461C391.809 344.405 401.206 347.97 408.335 353.154C415.14 358.015 420 364.496 423.241 372.921C425.833 380.697 427.453 390.743 427.453 402.732C427.453 416.017 424.861 427.359 419.676 437.08C414.168 446.477 407.039 454.254 397.966 460.41C388.893 466.243 378.2 470.78 366.21 473.696C353.897 476.288 341.26 477.584 327.65 477.584ZM330.89 387.826C327.65 387.826 324.086 387.502 320.197 387.502C315.661 387.178 311.448 386.854 307.56 386.53C302.699 385.882 297.839 385.558 292.978 384.91C289.09 388.474 286.497 392.039 284.553 395.927C282.609 399.167 281.637 403.704 281.637 408.889C281.637 420.878 296.866 427.035 327.974 427.035C341.584 427.035 352.277 425.414 359.73 422.174C366.858 418.934 370.423 413.425 370.423 405.972C370.423 402.084 369.775 398.843 368.803 396.575C367.507 393.983 365.238 392.363 362.322 391.067C359.082 389.77 355.193 388.798 350.333 388.474C345.148 387.826 338.667 387.826 330.89 387.826ZM316.309 263.072C327.65 263.072 336.075 261.128 341.584 257.239C346.768 253.675 349.36 246.546 349.36 236.177C349.36 227.752 346.768 220.947 341.584 216.411C336.399 211.874 327.974 209.606 316.633 209.606C304.967 209.606 296.866 212.198 292.33 217.059C287.145 222.243 284.877 228.724 284.877 236.177C284.877 245.574 287.145 252.379 292.006 256.591C296.542 261.128 304.643 263.072 316.309 263.072Z" fill="#FE6433"/>
<path d="M70.9747 255.592V325.26H120.876C144.855 325.26 156.845 313.595 156.845 289.94C156.845 278.275 153.604 269.85 147.771 264.017C141.291 258.508 132.542 255.592 120.876 255.592H70.9747ZM70.9747 136.346V205.69H116.34C127.681 205.69 136.106 202.45 141.291 195.969C146.151 189.489 148.744 180.74 148.744 169.074C148.744 147.364 137.726 136.346 115.692 136.346H70.9747ZM51.5325 376.134C42.4595 376.134 35.3307 375.162 30.1461 373.217C24.9615 371.273 21.073 368.357 18.4807 365.117C15.5644 361.228 13.9442 357.016 13.2961 352.155C12.324 346.97 12 341.138 12 335.305V125.977C12 118.848 12.6481 112.368 13.9442 107.183C15.2404 101.999 17.1846 97.7861 20.425 94.5457C23.3413 91.3053 27.2297 89.0371 32.4143 87.4169C37.2749 86.1207 43.4316 85.4727 51.2085 85.4727H120.228C133.19 85.4727 145.503 86.7688 156.52 89.3611C167.538 92.2774 176.935 96.4899 185.036 102.323C192.813 108.479 198.645 116.256 203.182 125.329C207.394 135.05 209.663 146.392 209.663 159.353C209.663 169.074 209.014 177.175 208.042 183.98C206.746 191.109 204.802 196.941 202.858 202.126C200.265 207.635 197.349 212.171 194.109 216.06C190.22 220.272 186.008 224.16 181.471 227.401C187.952 230.317 193.461 233.558 198.321 237.122C202.858 241.01 206.422 245.547 209.663 250.731C212.579 256.24 214.847 262.397 216.467 269.202C217.763 276.33 218.412 284.755 218.412 294.152C218.412 308.41 216.143 320.723 211.931 331.093C207.394 341.462 201.238 349.887 193.461 356.692C185.036 363.172 175.315 368.033 163.973 371.273C152.308 374.514 139.671 376.134 125.413 376.134H51.5325Z" fill="#FE6433"/>
<path d="M798.038 99.7634C819.938 99.7639 838.79 107.233 852.373 121.836C865.394 135.834 871.24 153.865 873.001 171.184C876.474 205.352 865.067 245.049 845.603 275.511C841.712 281.601 837.665 288.092 833.48 294.577C853.376 302.432 868.659 304.921 879.848 303.134C891.364 301.295 903.659 294.063 912.905 266.242C917.453 252.556 932.235 245.148 945.921 249.696C959.607 254.244 967.015 269.027 962.467 282.713C949.045 323.099 924.322 348.921 888.084 354.709C860.022 359.19 829.634 350.632 800.091 337.098C795.445 341.45 790.402 345.525 784.878 349.151C753.747 369.585 715.299 371.007 664.896 351.938C656.02 348.58 647.597 344.619 639.644 340.152C635.517 343.502 631.291 346.576 626.964 349.296C613.025 358.057 596.633 364.135 578.182 363.293C559.65 362.447 542.171 354.764 525.869 341.634C514.637 332.588 512.865 316.149 521.911 304.916C530.957 293.684 547.396 291.912 558.629 300.958C568.44 308.86 575.6 310.893 580.563 311.119C585 311.322 590.145 310.191 596.491 306.665C579.198 288.566 566.301 267.715 558.315 246.367C542.311 203.584 544.352 152.02 581.001 119.916C601.255 102.174 625.337 99.2865 646.944 108.174C666.515 116.223 681.867 132.86 692.342 150.391C703.044 168.301 710.366 189.921 712.004 211.642C713.637 233.305 709.7 257.135 695.188 276.904C689.53 284.611 683.549 292.654 677.247 300.592C679.255 301.467 681.298 302.303 683.378 303.089C724.528 318.658 743.911 313.542 756.158 305.528C748.528 295.99 742.665 285.255 738.3 274.329C729.341 251.901 725.79 226.636 726.511 203.12C727.226 179.806 732.214 156.031 742.387 137.113C752.46 118.382 770.641 99.7629 798.038 99.7634ZM647.508 177.18C640.444 165.358 632.633 158.76 627.077 156.475C623.557 155.027 620.55 154.704 615.415 159.202C601.287 171.577 595.482 196.658 607.232 228.068C612.794 242.935 621.93 257.711 634.295 270.632C640.295 263.187 646.532 254.927 653.087 245.998C658.189 239.047 660.915 228.721 659.924 215.569C658.936 202.476 654.346 188.623 647.508 177.18ZM814.133 157.407C811.76 154.857 807.506 151.992 798.036 151.992C797.67 151.992 793.769 151.837 788.385 161.848C783.102 171.672 779.259 186.919 778.714 204.72C778.174 222.319 780.934 240.264 786.802 254.954C788.109 258.226 789.528 261.239 791.042 263.996C794.35 258.823 797.805 253.318 801.592 247.391C815.933 224.947 823.114 196.857 821.041 176.465C820.029 166.505 817.068 160.564 814.133 157.407Z" fill="#151515"/>
</g>
<defs>
<filter id="filter0_d_1270_206" x="0" y="75" width="975.809" height="416.586" filterUnits="userSpaceOnUse" color-interpolation-filters="sRGB">
<feFlood flood-opacity="0" result="BackgroundImageFix"/>
<feColorMatrix in="SourceAlpha" type="matrix" values="0 0 0 0 0 0 0 0 0 0 0 0 0 0 0 0 0 0 127 0" result="hardAlpha"/>
<feOffset dy="2"/>
<feGaussianBlur stdDeviation="6"/>
<feComposite in2="hardAlpha" operator="out"/>
<feColorMatrix type="matrix" values="0 0 0 0 0 0 0 0 0 0 0 0 0 0 0 0 0 0 0.25 0"/>
<feBlend mode="normal" in2="BackgroundImageFix" result="effect1_dropShadow_1270_206"/>
<feBlend mode="normal" in="SourceGraphic" in2="effect1_dropShadow_1270_206" result="shape"/>
</filter>
</defs>
</svg>
